# xmcd
#
# Track frame offsets: 
#        150
#        17098
#        36041
#        54243
#        71570
#        95150
#        111851
#        134045
#        151547
#        172256
#        197985
#        217078
#
# Disc length: 3136 seconds
#
# Revision: 0
# Processed by: cddbd v1.5.1PL0 Copyright (c) Steve Scherf et al.
# Submitted via: ExactAudioCopy v0.95a5
#
DISCID=b00c3e0c
DTITLE=郭富城 - 情深...情徹...傾城精選
DYEAR=1998
DGENRE=Pop
TTITLE0=雨中感嘆號
TTITLE1=我為何讓你走
TTITLE2=我是不是該安靜的走開
TTITLE3=第四晚心情
TTITLE4=到底有誰能告訴我
TTITLE5=愛你
TTITLE6=情
TTITLE7=仍然掛念
TTITLE8=I'm on fire
TTITLE9=沒有你的愛
TTITLE10=難道你現在還不知道
TTITLE11=愛我就跟我走
EXTD=
EXTT0=
EXTT1=
EXTT2=
EXTT3=
EXTT4=
EXTT5=
EXTT6=
EXTT7=
EXTT8=
EXTT9=
EXTT10=
EXTT11=
PLAYORDER=
